<svg xmlns="http://www.w3.org/2000/svg" width="256" height="256" fill="none" viewBox="0 0 256 256"><g id="7" clip-path="url(#clip0)"><mask id="mask0" width="256" height="256" x="0" y="0" mask-type="alpha" maskUnits="userSpaceOnUse"><path id="Vector" fill="#000" fill-rule="evenodd" d="M128 256C230.4 256 256 230.4 256 128C256 25.6 230.4 0 128 0C25.6 0 0 25.6 0 128C0 230.4 25.6 256 128 256Z" clip-rule="evenodd"/></mask><g mask="url(#mask0)"><g id="stripes"><rect id="red" width="48" height="382.927" x="294.122" y="-45.106" fill="#ED7482" transform="rotate(81 294.122 -45.106)"/><rect id="orange" width="48" height="384" x="302.618" y="2.147" fill="#EA9763" transform="rotate(81 302.618 2.14661)"/><rect id="yellow" width="48" height="384" x="310.127" y="49.556" fill="#E9D858" transform="rotate(81 310.127 49.5557)"/><rect id="green" width="48" height="384" x="317.636" y="96.965" fill="#63EB97" transform="rotate(81 317.636 96.9646)"/><rect id="blue" width="48" height="384" x="325.145" y="144.374" fill="#61B6EA" transform="rotate(81 325.145 144.374)"/><rect id="purple" width="48" height="384" x="332.654" y="191.783" fill="#A172EC" transform="rotate(81 332.654 191.783)"/></g><path id="path3866" fill="#fff" d="M112.84 32L71 39.1043V224H112.84V154.049C112.84 133.465 123.755 120.714 132.851 120.714C141.037 120.714 143.402 128.911 143.402 141.298V224H185.424V135.287C185.424 107.233 174.873 89.1992 147.404 89.1992C134.488 89.1992 121.936 92.8425 112.84 101.04V32Z"/></g></g><defs><clipPath id="clip0"><rect width="256" height="256" fill="#fff" transform="translate(256) rotate(90)"/></clipPath></defs></svg>